<svg xmlns="http://www.w3.org/2000/svg" xmlns:xlink="http://www.w3.org/1999/xlink" viewBox="0 0 500 500" width="500" height="500" style="width: 100%; height: 100%; transform: translate3d(0px, 0px, 0px); content-visibility: visible;" preserveAspectRatio="xMidYMid meet"><defs><clipPath id="__lottie_element_10"><rect width="500" height="500" x="0" y="0"/></clipPath><clipPath id="__lottie_element_12"><path d="M0,0 L500,0 L500,500 L0,500z"/></clipPath><g id="__lottie_element_20"><g class="primary design" style="display: none;" transform="matrix(1,0.000001334774992756138,-0.000001334774992756138,1,249.9990692138672,187.5030059814453)" opacity="1"><g opacity="1" transform="matrix(1,0,0,1,0,0)"><path stroke-linecap="round" stroke-linejoin="round" fill-opacity="0" stroke="rgb(0,0,0)" stroke-opacity="1" stroke-width="41" d=" M247.36705017089844,-81.95661926269531 C247.36705017089844,-81.95661926269531 45.930389404296875,125.87842559814453 45.930389404296875,125.87842559814453 C21.09865951538086,151.4998016357422 -20.60392951965332,151.4998016357422 -45.4356575012207,125.87842559814453 C-45.4356575012207,125.87842559814453 -242.41281127929688,-75.55586242675781 -242.41281127929688,-75.55586242675781"/></g></g></g><filter id="__lottie_element_25" filterUnits="objectBoundingBox" x="0%" y="0%" width="100%" height="100%"><feComponentTransfer in="SourceGraphic"><feFuncA type="table" tableValues="1.0 0.0"/></feComponentTransfer></filter><mask id="__lottie_element_20_2" mask-type="alpha"><g filter="url(#__lottie_element_25)"><rect width="500" height="500" x="0" y="0" fill="#ffffff" opacity="0"/><use a0:href="#__lottie_element_20" xmlns:a0="http://www.w3.org/1999/xlink"/></g></mask><clipPath id="__lottie_element_123"><path d="M0,0 L500,0 L500,500 L0,500z"/></clipPath><g id="__lottie_element_270"><g class="primary design" style="display: none;" transform="matrix(0.9926207065582275,0.12126056849956512,-0.12126056849956512,0.9926207065582275,272.1087951660156,136.19984436035156)" opacity="1"><g opacity="1" transform="matrix(1,0,0,1,0,0)"><path stroke-linecap="round" stroke-linejoin="round" fill-opacity="0" class="primary" stroke="rgb(47,200,232)" stroke-opacity="1" stroke-width="41" d=" M-243.25599670410156,8.76200008392334 C-243.25599670410156,8.76200008392334 -54.047000885009766,205.4029998779297 -54.047000885009766,205.4029998779297 C-22.172000885009766,237.99600219726562 21.850000381469727,237.99600219726562 53.724998474121094,205.4029998779297 C53.724998474121094,205.4029998779297 244.20199584960938,7.515999794006348 244.20199584960938,7.515999794006348"/></g></g></g><filter id="__lottie_element_273" filterUnits="objectBoundingBox" x="0%" y="0%" width="100%" height="100%"><feComponentTransfer in="SourceGraphic"><feFuncA type="table" tableValues="1.0 0.0"/></feComponentTransfer></filter><mask id="__lottie_element_270_2" mask-type="alpha"><g filter="url(#__lottie_element_273)"><rect width="500" height="500" x="0" y="0" fill="#ffffff" opacity="0"/><use a1:href="#__lottie_element_270" xmlns:a1="http://www.w3.org/1999/xlink"/></g></mask><g id="__lottie_element_277"><g class="primary design" style="display: none;" transform="matrix(0.9999140501022339,-0.01311263907700777,0.01311263907700777,0.9999140501022339,247.61366271972656,82.97460174560547)" opacity="1"><g opacity="1" transform="matrix(1,0,0,1,0,0)"><path stroke-linecap="round" stroke-linejoin="round" fill-opacity="0" class="primary" stroke="rgb(47,200,232)" stroke-opacity="1" stroke-width="41" d=" M-228.30694580078125,45.701446533203125 C-207.77276611328125,26.35203742980957 -45.888221740722656,-38.911441802978516 -45.888221740722656,-38.911441802978516 C-18.76480484008789,-44.48013687133789 18.694347381591797,-44.48013687133789 45.81776428222656,-38.911441802978516 C45.81776428222656,-38.911441802978516 208.30337524414062,26.050155639648438 228.92181396484375,46.83282470703125"/></g></g></g><filter id="__lottie_element_280" filterUnits="objectBoundingBox" x="0%" y="0%" width="100%" height="100%"><feComponentTransfer in="SourceGraphic"><feFuncA type="table" tableValues="1.0 0.0"/></feComponentTransfer></filter><mask id="__lottie_element_277_2" mask-type="alpha"><g filter="url(#__lottie_element_280)"><rect width="500" height="500" x="0" y="0" fill="#ffffff" opacity="0"/><use a2:href="#__lottie_element_277" xmlns:a2="http://www.w3.org/1999/xlink"/></g></mask><g id="__lottie_element_284"><g class="primary design" style="display: block;" transform="matrix(0.9999994039535522,-0.0010822732001543045,0.0010822732001543045,0.9999994039535522,-0.39882776141166687,-42.040950775146484)" opacity="1"><g opacity="1" transform="matrix(1,0,0,1,249.98699951171875,260.4169921875)"><path class="primary" fill="rgb(47,200,232)" fill-opacity="1" d=" M113.23999786376953,214.74200439453125 C113.23999786376953,214.74200439453125 -113.23999786376953,214.74200439453125 -113.23999786376953,214.74200439453125 C-134.0489959716797,214.74200439453125 -150.98699951171875,197.81399536132812 -150.98699951171875,176.99600219726562 C-150.98699951171875,176.99600219726562 -150.98699951171875,-119.99600219726562 -150.98699951171875,-119.99600219726562 C-150.98699951171875,-140.81399536132812 -134.0489959716797,-157.74200439453125 -113.23999786376953,-157.74200439453125 C-113.23999786376953,-157.74200439453125 113.23999786376953,-157.74200439453125 113.23999786376953,-157.74200439453125 C134.0489959716797,-157.74200439453125 150.98699951171875,-140.81399536132812 150.98699951171875,-119.99600219726562 C150.98699951171875,-119.99600219726562 150.98699951171875,176.99600219726562 150.98699951171875,176.99600219726562 C150.98699951171875,197.81399536132812 134.0489959716797,214.74200439453125 113.23999786376953,214.74200439453125z"/></g></g></g><g id="__lottie_element_290"><g class="primary design" style="display: block;" transform="matrix(0.9999994039535522,-0.0010822732001543045,0.0010822732001543045,0.9999994039535522,249.964599609375,293.6287841796875)" opacity="1"><g opacity="1" transform="matrix(1,0,0,1,0,0)"><path class="primary" fill="rgb(47,200,232)" fill-opacity="1" d=" M-205,-13 C-205,-13 -198,628 -198,628 C-198,628 186,628 186,628 C186,628 186,2 186,2 C186,2 7,114 7,114 C7,114 -20,110 -20,110 C-20,110 -205,-13 -205,-13z"/><path stroke-linecap="butt" stroke-linejoin="miter" fill-opacity="0" stroke-miterlimit="4" class="primary" stroke="rgb(47,200,232)" stroke-opacity="1" stroke-width="0" d=" M-205,-13 C-205,-13 -198,628 -198,628 C-198,628 186,628 186,628 C186,628 186,2 186,2 C186,2 7,114 7,114 C7,114 -20,110 -20,110 C-20,110 -205,-13 -205,-13z"/></g></g></g><filter id="__lottie_element_296" filterUnits="objectBoundingBox" x="0%" y="0%" width="100%" height="100%"><feComponentTransfer in="SourceGraphic"><feFuncA type="table" tableValues="1.0 0.0"/></feComponentTransfer></filter><mask id="__lottie_element_290_2" mask-type="alpha"><g filter="url(#__lottie_element_296)"><rect width="500" height="500" x="0" y="0" fill="#ffffff" opacity="0"/><use a3:href="#__lottie_element_290" xmlns:a3="http://www.w3.org/1999/xlink"/></g></mask><filter id="__lottie_element_297" filterUnits="objectBoundingBox" x="0%" y="0%" width="100%" height="100%"><feComponentTransfer in="SourceGraphic"><feFuncA type="table" tableValues="1.0 0.0"/></feComponentTransfer></filter><mask id="__lottie_element_284_2" mask-type="alpha"><g filter="url(#__lottie_element_297)"><rect width="500" height="500" x="0" y="0" fill="#ffffff" opacity="0"/><use a4:href="#__lottie_element_284" xmlns:a4="http://www.w3.org/1999/xlink"/></g></mask></defs><g clip-path="url(#__lottie_element_10)"><g clip-path="url(#__lottie_element_123)" style="display: block;" transform="matrix(1,0,0,1,0,0)" opacity="1"><g class="primary design" style="display: none;"><g><path stroke-linecap="round" stroke-linejoin="round" fill-opacity="0" class="primary"/></g></g><g style="display: none;" mask="url(#__lottie_element_270_2)"><g class="primary design" transform="matrix(0.9926207065582275,0.12126056849956512,-0.12126056849956512,0.9926207065582275,36.25465393066406,5.148980617523193)" opacity="1"><g opacity="1" transform="matrix(1,0,0,1,0,0)"><g opacity="1" transform="matrix(1,0,0,1,250.04600524902344,296.4580078125)"><path class="primary" fill="rgb(47,200,232)" fill-opacity="1" d=" M208.33299255371094,-192.29200744628906 C208.33299255371094,-192.29200744628906 208.2712860107422,-168.6602020263672 208.2712860107422,-168.6602020263672 C208.2712860107422,-168.6602020263672 29.104909896850586,15.089800834655762 29.104909896850586,15.089800834655762 C13.896909713745117,30.922801971435547 -13.811717987060547,30.922801971435547 -29.228717803955078,15.089800834655762 C-29.228717803955078,15.089800834655762 -208.3950958251953,-168.6602020263672 -208.3950958251953,-168.6602020263672 C-208.3950958251953,-168.6602020263672 -208.33299255371094,-192.29200744628906 -208.33299255371094,-192.29200744628906 C-208.33299255371094,-203.75 -198.95799255371094,-213.125 -187.5,-213.125 C-187.5,-213.125 187.5,-213.125 187.5,-213.125 C198.95799255371094,-213.125 208.33299255371094,-203.75 208.33299255371094,-192.29200744628906z M58.95800018310547,17.712371826171875 C58.95800018310547,17.712371826171875 208.33299255371094,-135.41262817382812 208.33299255371094,-135.41262817382812 C208.33299255371094,-135.41262817382812 208.210205078125,78.28761291503906 208.210205078125,78.28761291503906 C208.210205078125,89.74561309814453 198.83421325683594,99.12061309814453 187.376220703125,99.12061309814453 C187.376220703125,99.12061309814453 -187.623779296875,99.12061309814453 -187.623779296875,99.12061309814453 C-199.081787109375,99.12061309814453 -208.456787109375,89.74561309814453 -208.456787109375,78.28761291503906 C-208.456787109375,78.28761291503906 -208.33299255371094,-135.41262817382812 -208.33299255371094,-135.41262817382812 C-208.33299255371094,-135.41262817382812 -59.16699981689453,17.50436782836914 -59.16699981689453,17.50436782836914 C-43.54199981689453,33.75436782836914 -22.5,42.50436782836914 0,42.50436782836914 C22.5,42.50436782836914 43.54100036621094,33.754371643066406 58.95800018310547,17.712371826171875z"/></g></g></g></g><g style="display: none;" mask="url(#__lottie_element_277_2)"><g class="primary design" transform="matrix(0.9999140501022339,-0.01311263907700777,0.01311263907700777,0.9999140501022339,-3.7005717754364014,-15.222443580627441)" opacity="1"><g opacity="1" transform="matrix(1,0,0,1,0,0)"><g opacity="1" transform="matrix(1,0,0,1,250.04600524902344,320.2080078125)"><path class="primary" fill="rgb(47,200,232)" fill-opacity="1" d=" M208.31668090820312,-162.14443969726562 C208.31668090820312,-162.14443969726562 208.30035400390625,-153.6791229248047 208.30035400390625,-153.6791229248047 C208.30035400390625,-153.6791229248047 24.522464752197266,-28.777633666992188 18.662546157836914,-22.787113189697266 C17.403675079345703,-21.500125885009766 2.923610210418701,-11.063015937805176 0,-11.063015937805176 C-3.0678181648254395,-11.063015937805176 -23.112762451171875,-25.191848754882812 -24.616968154907227,-26.737773895263672 C-30.555339813232422,-32.84075927734375 -208.30035400390625,-152.06759643554688 -208.30035400390625,-152.06759643554688 C-208.30035400390625,-152.06759643554688 -208.31668090820312,-162.1775360107422 -208.31668090820312,-162.1775360107422 C-208.2953643798828,-168.93212890625 -204.4788055419922,-175.6112060546875 -198.84225463867188,-178.7429656982422 C-198.84225463867188,-178.7429656982422 -57.820831298828125,-246.47987365722656 -57.820831298828125,-246.47987365722656 C-23.4242000579834,-257.8709411621094 23.470455169677734,-257.7848205566406 57.83851623535156,-246.47987365722656 C57.83851623535156,-246.47987365722656 199.05357360839844,-178.7425079345703 199.05357360839844,-178.7425079345703 C204.8619842529297,-175.6107635498047 208.33255004882812,-168.53668212890625 208.31668090820312,-162.14443969726562z M15.117866516113281,29.11412811279297 C15.117866516113281,29.11412811279297 208.31781005859375,-100.60340881347656 208.31781005859375,-100.60340881347656 C208.31781005859375,-100.60340881347656 208.30178833007812,73.93782043457031 208.30178833007812,73.93782043457031 C208.30178833007812,85.39582061767578 198.92678833007812,94.77082061767578 187.46878051757812,94.77082061767578 C187.46878051757812,94.77082061767578 -187.53121948242188,94.77082061767578 -187.53121948242188,94.77082061767578 C-198.9892120361328,94.77082061767578 -208.3643035888672,85.39582061767578 -208.3643035888672,73.93782043457031 C-208.3643035888672,73.93782043457031 -208.3481903076172,-99.21073150634766 -208.3481903076172,-99.21073150634766 C-208.3481903076172,-99.21073150634766 -15.012417793273926,29.419891357421875 -15.012417793273926,29.419891357421875 C-10.269424438476562,32.48042678833008 -5.247570037841797,34.011146545410156 0.052771326154470444,34.011146545410156 C5.353206157684326,34.011146545410156 10.654454231262207,32.48133087158203 15.117866516113281,29.11412811279297z"/></g></g></g></g><g class="primary design" style="display: none;" transform="matrix(1,-0.000003828076387435431,0.000003828076387435431,1,-0.002093396382406354,42.00095748901367)" opacity="0.56"><g opacity="1" transform="matrix(1,0,0,1,0,0)"><g opacity="1" transform="matrix(1,0,0,1,250.04600524902344,164.83099365234375)"><path class="primary" fill="rgb(47,200,232)" fill-opacity="1" d=" M208.33299255371094,1.628000020980835 C208.33299255371094,1.628000020980835 208.33299255371094,9.336000442504883 208.33299255371094,9.336000442504883 C208.33299255371094,9.336000442504883 0,143.91900634765625 0,143.91900634765625 C0,143.91900634765625 -208.33299255371094,11.211000442504883 -208.33299255371094,11.211000442504883 C-208.33299255371094,11.211000442504883 -208.33299255371094,1.628000020980835 -208.33299255371094,1.628000020980835 C-208.33299255371094,-4.829999923706055 -205.20799255371094,-11.081000328063965 -200,-15.038999557495117 C-200,-15.038999557495117 -49.16699981689453,-127.74700164794922 -49.16699981689453,-127.74700164794922 C-20.208999633789062,-149.41400146484375 20.208999633789062,-149.2050018310547 49.16699981689453,-127.74700164794922 C49.16699981689453,-127.74700164794922 200,-15.038999557495117 200,-15.038999557495117 C205.20799255371094,-11.081000328063965 208.33299255371094,-4.829999923706055 208.33299255371094,1.628000020980835z"/></g><g opacity="1" transform="matrix(1,0,0,1,250.04600524902344,320.2080078125)"><path class="primary" fill="rgb(47,200,232)" fill-opacity="1" d=" M11.25,30.625 C11.25,30.625 208.33299255371094,-96.45800018310547 208.33299255371094,-96.45800018310547 C208.33299255371094,-96.45800018310547 208.33299255371094,75.625 208.33299255371094,75.625 C208.33299255371094,87.08300018310547 198.95799255371094,96.45800018310547 187.5,96.45800018310547 C187.5,96.45800018310547 -187.5,96.45800018310547 -187.5,96.45800018310547 C-198.95799255371094,96.45800018310547 -208.33299255371094,87.08300018310547 -208.33299255371094,75.625 C-208.33299255371094,75.625 -208.33299255371094,-94.79199981689453 -208.33299255371094,-94.79199981689453 C-208.33299255371094,-94.79199981689453 -11.25,30.83300018310547 -11.25,30.83300018310547 C-7.708000183105469,32.91600036621094 -3.9579999446868896,33.95800018310547 0,33.95800018310547 C3.9579999446868896,33.95800018310547 7.916999816894531,32.91699981689453 11.25,30.625z"/></g></g></g><g class="primary design" style="display: none;" transform="matrix(0.9935897588729858,0.11304575204849243,-0.11304575204849243,0.9935897588729858,33.68122482299805,16.557634353637695)" opacity="1"><g opacity="1" transform="matrix(1,0,0,1,0,0)"><g opacity="1" transform="matrix(1,0,0,1,250.04600524902344,296.4580078125)"><path class="primary" fill="rgb(47,200,232)" fill-opacity="1" d=" M208.33299255371094,-192.29200744628906 C208.33299255371094,-192.29200744628906 208.33299255371094,-180 208.33299255371094,-180 C208.33299255371094,-180 29.16699981689453,3.75 29.16699981689453,3.75 C13.958999633789062,19.58300018310547 -13.75,19.58300018310547 -29.16699981689453,3.75 C-29.16699981689453,3.75 -208.33299255371094,-180 -208.33299255371094,-180 C-208.33299255371094,-180 -208.33299255371094,-192.29200744628906 -208.33299255371094,-192.29200744628906 C-208.33299255371094,-203.75 -198.95799255371094,-213.125 -187.5,-213.125 C-187.5,-213.125 187.5,-213.125 187.5,-213.125 C198.95799255371094,-213.125 208.33299255371094,-203.75 208.33299255371094,-192.29200744628906z M58.95800018310547,32.91699981689453 C58.95800018310547,32.91699981689453 208.33299255371094,-120.20800018310547 208.33299255371094,-120.20800018310547 C208.33299255371094,-120.20800018310547 208.05999755859375,69.80904388427734 208.05999755859375,69.80904388427734 C208.05999755859375,81.26704406738281 198.68499755859375,90.64204406738281 187.2270050048828,90.64204406738281 C187.2270050048828,90.64204406738281 -187.7729949951172,90.64204406738281 -187.7729949951172,90.64204406738281 C-199.2310028076172,90.64204406738281 -208.60699462890625,81.26704406738281 -208.60699462890625,69.80904388427734 C-208.60699462890625,69.80904388427734 -208.33299255371094,-120.20800018310547 -208.33299255371094,-120.20800018310547 C-208.33299255371094,-120.20800018310547 -59.16699981689453,32.70800018310547 -59.16699981689453,32.70800018310547 C-43.54199981689453,48.95800018310547 -22.5,57.70800018310547 0,57.70800018310547 C22.5,57.70800018310547 43.54100036621094,48.95899963378906 58.95800018310547,32.91699981689453z"/></g></g></g><g style="display: block;" mask="url(#__lottie_element_284_2)"><g class="primary design" transform="matrix(0.9999994039535522,-0.0010822732001543045,0.0010822732001543045,0.9999994039535522,-0.3058166801929474,43.89949035644531)" opacity="1"><g opacity="1" transform="matrix(1,0,0,1,0,0)"><g opacity="1" transform="matrix(1,0,0,1,250.04600524902344,164.83099365234375)"><path class="primary" fill="rgb(47,200,232)" fill-opacity="1" d=" M208.33299255371094,1.628000020980835 C208.33299255371094,1.628000020980835 208.33299255371094,9.336000442504883 208.33299255371094,9.336000442504883 C208.33299255371094,9.336000442504883 0,143.91900634765625 0,143.91900634765625 C0,143.91900634765625 -208.33299255371094,11.211000442504883 -208.33299255371094,11.211000442504883 C-208.33299255371094,11.211000442504883 -208.33299255371094,1.628000020980835 -208.33299255371094,1.628000020980835 C-208.33299255371094,-4.829999923706055 -205.20799255371094,-11.081000328063965 -200,-15.038999557495117 C-200,-15.038999557495117 -143.9409942626953,-56.92900085449219 -143.9409942626953,-56.92900085449219 C-143.9409942626953,-56.92900085449219 -49.16699981689453,-127.74700164794922 -49.16699981689453,-127.74700164794922 C-20.208999633789062,-149.41400146484375 20.208999633789062,-149.2050018310547 49.16699981689453,-127.74700164794922 C49.16699981689453,-127.74700164794922 146.91700744628906,-54.70500183105469 146.91700744628906,-54.70500183105469 C146.91700744628906,-54.70500183105469 200,-15.038999557495117 200,-15.038999557495117 C205.20799255371094,-11.081000328063965 208.33299255371094,-4.829999923706055 208.33299255371094,1.628000020980835z"/></g></g></g></g><g style="display: block;" mask="url(#__lottie_element_290_2)"><g class="primary design" transform="matrix(0.9999994039535522,-0.0010822732001543045,0.0010822732001543045,0.9999994039535522,-0.39882776141166687,-42.040950775146484)" opacity="1"><g opacity="1" transform="matrix(1,0,0,1,249.98699951171875,260.4169921875)"><path class="primary" fill="rgb(47,200,232)" fill-opacity="1" d=" M125,234.08299255371094 C125,234.08299255371094 -125,234.08299255371094 -125,234.08299255371094 C-147.97000122070312,234.08299255371094 -166.66700744628906,215.39700317382812 -166.66700744628906,192.41700744628906 C-166.66700744628906,192.41700744628906 -166.66700744628906,-135.41700744628906 -166.66700744628906,-135.41700744628906 C-166.66700744628906,-158.39700317382812 -147.97000122070312,-177.08299255371094 -125,-177.08299255371094 C-125,-177.08299255371094 125,-177.08299255371094 125,-177.08299255371094 C147.97000122070312,-177.08299255371094 166.66700744628906,-158.39700317382812 166.66700744628906,-135.41700744628906 C166.66700744628906,-135.41700744628906 166.66700744628906,192.41700744628906 166.66700744628906,192.41700744628906 C166.66700744628906,215.39700317382812 147.97000122070312,234.08299255371094 125,234.08299255371094z M-125,-135.41700744628906 C-125,-135.41700744628906 -125,192.41700744628906 -125,192.41700744628906 C-125,192.41700744628906 125.0199966430664,192.41700744628906 125.0199966430664,192.41700744628906 C125.0199966430664,192.41700744628906 125,-135.41700744628906 125,-135.41700744628906 C125,-135.41700744628906 -125,-135.41700744628906 -125,-135.41700744628906z"/></g><g opacity="1" transform="matrix(1,0,0,1,249.98699951171875,187.5)"><path class="primary" fill="rgb(47,200,232)" fill-opacity="1" d=" M62.5,20.83300018310547 C62.5,20.83300018310547 -62.5,20.83300018310547 -62.5,20.83300018310547 C-74.01499938964844,20.83300018310547 -83.33300018310547,11.505000114440918 -83.33300018310547,0 C-83.33300018310547,-11.505000114440918 -74.01499938964844,-20.83300018310547 -62.5,-20.83300018310547 C-62.5,-20.83300018310547 62.5,-20.83300018310547 62.5,-20.83300018310547 C74.01499938964844,-20.83300018310547 83.33300018310547,-11.505000114440918 83.33300018310547,0 C83.33300018310547,11.505000114440918 74.01499938964844,20.83300018310547 62.5,20.83300018310547z"/></g><g opacity="1" transform="matrix(1,0,0,1,249.98699951171875,270.8330078125)"><path class="primary" fill="rgb(47,200,232)" fill-opacity="1" d=" M62.5,20.83300018310547 C62.5,20.83300018310547 -62.5,20.83300018310547 -62.5,20.83300018310547 C-74.01499938964844,20.83300018310547 -83.33300018310547,11.505000114440918 -83.33300018310547,0 C-83.33300018310547,-11.505000114440918 -74.01499938964844,-20.83300018310547 -62.5,-20.83300018310547 C-62.5,-20.83300018310547 62.5,-20.83300018310547 62.5,-20.83300018310547 C74.01499938964844,-20.83300018310547 83.33300018310547,-11.505000114440918 83.33300018310547,0 C83.33300018310547,11.505000114440918 74.01499938964844,20.83300018310547 62.5,20.83300018310547z"/></g></g></g><g class="primary design" style="display: block;" transform="matrix(0.9999994039535522,-0.0010822732001543045,0.0010822732001543045,0.9999994039535522,-0.3058166801929474,43.89949035644531)" opacity="1"><g opacity="1" transform="matrix(1,0,0,1,0,0)"><g opacity="1" transform="matrix(1,0,0,1,250.04600524902344,320.2080078125)"><path class="primary" fill="rgb(47,200,232)" fill-opacity="1" d=" M11.25,30.625 C11.25,30.625 208.33299255371094,-96.45800018310547 208.33299255371094,-96.45800018310547 C208.33299255371094,-96.45800018310547 208.33299255371094,75.625 208.33299255371094,75.625 C208.33299255371094,87.08300018310547 198.95799255371094,96.45800018310547 187.5,96.45800018310547 C187.5,96.45800018310547 -187.5,96.45800018310547 -187.5,96.45800018310547 C-198.95799255371094,96.45800018310547 -208.33299255371094,87.08300018310547 -208.33299255371094,75.625 C-208.33299255371094,75.625 -208.33299255371094,-94.79199981689453 -208.33299255371094,-94.79199981689453 C-208.33299255371094,-94.79199981689453 -11.25,30.83300018310547 -11.25,30.83300018310547 C-7.708000183105469,32.91600036621094 -3.9579999446868896,33.95800018310547 0,33.95800018310547 C3.9579999446868896,33.95800018310547 7.916999816894531,32.91699981689453 11.25,30.625z"/></g></g></g></g><g clip-path="url(#__lottie_element_12)" style="display: none;" transform="matrix(1,0,0,1,0,0)" opacity="1"><g style="display: none;" mask="url(#__lottie_element_20_2)"><g class="primary design" transform="matrix(1,0.000001334774992756138,-0.000001334774992756138,1,249.99899291992188,250.0030059814453)" opacity="1"><g opacity="1" transform="matrix(1,0,0,1,0,0)"><path stroke-linecap="round" stroke-linejoin="round" fill-opacity="0" class="primary" stroke="rgb(18,19,49)" stroke-opacity="1" stroke-width="41" d=" M187.49899291992188,146.56700134277344 C187.49899291992188,146.56700134277344 -187.49899291992188,146.56700134277344 -187.49899291992188,146.56700134277344 C-187.49899291992188,146.56700134277344 -187.49899291992188,-146.56700134277344 -187.49899291992188,-146.56700134277344 C-187.49899291992188,-146.56700134277344 187.49899291992188,-146.56700134277344 187.49899291992188,-146.56700134277344 C187.49899291992188,-146.56700134277344 187.49899291992188,146.56700134277344 187.49899291992188,146.56700134277344z"/><path class="primary" fill="rgb(18,19,49)" fill-opacity="1" d=" M187.49899291992188,146.56700134277344 C187.49899291992188,146.56700134277344 -187.49899291992188,146.56700134277344 -187.49899291992188,146.56700134277344 C-187.49899291992188,146.56700134277344 -187.49899291992188,-146.56700134277344 -187.49899291992188,-146.56700134277344 C-187.49899291992188,-146.56700134277344 187.49899291992188,-146.56700134277344 187.49899291992188,-146.56700134277344 C187.49899291992188,-146.56700134277344 187.49899291992188,146.56700134277344 187.49899291992188,146.56700134277344z"/></g></g></g><g class="primary design" style="display: block;" transform="matrix(1,0.000001334774992756138,-0.000001334774992756138,1,0.0003184389788657427,-0.00033369241282343864)" opacity="1"><g opacity="1" transform="matrix(1,0,0,1,0,0)"><g opacity="1" transform="matrix(1,0,0,1,250.04600524902344,296.4580078125)"><path class="primary" fill="rgb(18,19,49)" fill-opacity="1" d=" M208.33299255371094,-192.29200744628906 C208.33299255371094,-192.29200744628906 208.33299255371094,-180 208.33299255371094,-180 C208.33299255371094,-180 29.16699981689453,3.75 29.16699981689453,3.75 C13.958999633789062,19.58300018310547 -13.75,19.58300018310547 -29.16699981689453,3.75 C-29.16699981689453,3.75 -208.33299255371094,-180 -208.33299255371094,-180 C-208.33299255371094,-180 -208.33299255371094,-192.29200744628906 -208.33299255371094,-192.29200744628906 C-208.33299255371094,-203.75 -198.95799255371094,-213.125 -187.5,-213.125 C-187.5,-213.125 187.5,-213.125 187.5,-213.125 C198.95799255371094,-213.125 208.33299255371094,-203.75 208.33299255371094,-192.29200744628906z M58.95800018310547,32.91699981689453 C58.95800018310547,32.91699981689453 208.33299255371094,-120.20800018310547 208.33299255371094,-120.20800018310547 C208.33299255371094,-120.20800018310547 208.33299255371094,99.375 208.33299255371094,99.375 C208.33299255371094,110.83300018310547 198.95799255371094,120.20800018310547 187.5,120.20800018310547 C187.5,120.20800018310547 -187.5,120.20800018310547 -187.5,120.20800018310547 C-198.95799255371094,120.20800018310547 -208.33299255371094,110.83300018310547 -208.33299255371094,99.375 C-208.33299255371094,99.375 -208.33299255371094,-120.20800018310547 -208.33299255371094,-120.20800018310547 C-208.33299255371094,-120.20800018310547 -59.16699981689453,32.70800018310547 -59.16699981689453,32.70800018310547 C-43.54199981689453,48.95800018310547 -22.5,57.70800018310547 0,57.70800018310547 C22.5,57.70800018310547 43.54100036621094,48.95899963378906 58.95800018310547,32.91699981689453z"/></g></g></g><g class="primary design" style="display: none;" transform="matrix(1,0.000001334774992756138,-0.000001334774992756138,1,0.0003184389788657427,-0.00033369241282343864)" opacity="1"><g opacity="1" transform="matrix(1,0,0,1,0,0)"><g opacity="1" transform="matrix(1,0,0,1,250.04600524902344,296.4580078125)"><path class="primary" fill="rgb(18,19,49)" fill-opacity="1" d=" M208.33299255371094,-192.29200744628906 C208.33299255371094,-192.29200744628906 208.33299255371094,-180 208.33299255371094,-180 C208.33299255371094,-180 29.16699981689453,3.75 29.16699981689453,3.75 C13.958999633789062,19.58300018310547 -13.75,19.58300018310547 -29.16699981689453,3.75 C-29.16699981689453,3.75 -208.33299255371094,-180 -208.33299255371094,-180 C-208.33299255371094,-180 -208.33299255371094,-192.29200744628906 -208.33299255371094,-192.29200744628906 C-208.33299255371094,-203.75 -198.95799255371094,-213.125 -187.5,-213.125 C-187.5,-213.125 187.5,-213.125 187.5,-213.125 C198.95799255371094,-213.125 208.33299255371094,-203.75 208.33299255371094,-192.29200744628906z M58.95800018310547,32.91699981689453 C58.95800018310547,32.91699981689453 208.33299255371094,-120.20800018310547 208.33299255371094,-120.20800018310547 C208.33299255371094,-120.20800018310547 208.33299255371094,99.375 208.33299255371094,99.375 C208.33299255371094,110.83300018310547 198.95799255371094,120.20800018310547 187.5,120.20800018310547 C187.5,120.20800018310547 -187.5,120.20800018310547 -187.5,120.20800018310547 C-198.95799255371094,120.20800018310547 -208.33299255371094,110.83300018310547 -208.33299255371094,99.375 C-208.33299255371094,99.375 -208.33299255371094,-120.20800018310547 -208.33299255371094,-120.20800018310547 C-208.33299255371094,-120.20800018310547 -59.16699981689453,32.70800018310547 -59.16699981689453,32.70800018310547 C-43.54199981689453,48.95800018310547 -22.5,57.70800018310547 0,57.70800018310547 C22.5,57.70800018310547 43.54100036621094,48.95899963378906 58.95800018310547,32.91699981689453z"/></g></g></g></g></g></svg>